<svg xmlns="http://www.w3.org/2000/svg" width="24" height="24" fill="none" viewBox="0 0 24 24"><path fill="#fff" d="M10.8571 8.57143H13.1428V6.85714H14.8571L12 4L9.14282 6.85714H10.8571V8.57143Z"/><path fill="#fff" d="M8.57143 13.1429L8.57143 10.8572L6.85714 10.8572L6.85714 9.14289L4 12L6.85714 14.8572L6.85714 13.1429L8.57143 13.1429Z"/><path fill="#fff" d="M13.1429 15.4286L10.8572 15.4286L10.8572 17.1429L9.14289 17.1429L12 20L14.8572 17.1429L13.1429 17.1429L13.1429 15.4286Z"/><path fill="#fff" d="M15.4286 10.8571L15.4286 13.1428L17.1429 13.1428L17.1429 14.8571L20 12L17.1429 9.14282L17.1429 10.8571L15.4286 10.8571Z"/></svg>