<svg xmlns="http://www.w3.org/2000/svg" width="40" height="40" fill="none" viewBox="0 0 40 40"><defs><linearGradient id="paint0_linear_987_11512" x1="32.112" x2="6.63" y1="1.666" y2="40.93" gradientUnits="userSpaceOnUse"><stop stop-color="#627EEA"/><stop offset="1" stop-color="#3C61F1"/></linearGradient></defs><path fill="url(#paint0_linear_987_11512)" d="M21.9726 39.1382C32.7058 37.885 40.3908 28.168 39.1376 17.4348C37.8843 6.70162 28.1674 -0.9834 17.4342 0.269851C6.70098 1.5231 -0.98404 11.24 0.269211 21.9733C1.52246 32.7065 11.2394 40.3915 21.9726 39.1382Z"/><path fill="#fff" fill-opacity=".602" d="M17.9539 6.77441L19.0716 16.3468L27.5838 19.0175L17.9539 6.77441Z"/><path fill="#fff" d="M17.9541 6.77482L11.4015 20.9074L19.0718 16.3472L17.9541 6.77482Z"/><path fill="#fff" fill-opacity=".602" d="M20.2182 26.1669L20.9777 32.6718L27.7656 20.5244L20.2182 26.1669Z"/><path fill="#fff" d="M20.9779 32.6713L20.2182 26.1652L11.5775 22.4141L20.9779 32.6713Z"/><path fill="#fff" fill-opacity=".2" d="M20.0422 24.6597L27.5838 19.0172L19.0718 16.3486L20.0422 24.6597Z"/><path fill="#fff" fill-opacity=".602" d="M11.4015 20.9072L20.0425 24.6601L19.072 16.349L11.4015 20.9072Z"/></svg>